<svg xmlns="http://www.w3.org/2000/svg" viewBox="0 0 240 150">
  <defs><pattern id="g" width="15" height="15" patternUnits="userSpaceOnUse"><path d="M15 0H0V15" fill="none" stroke="#ECECEC" stroke-width="1"/></pattern></defs><rect width="240" height="150" fill="#fff"/><rect width="240" height="150" fill="url(#g)"/>
  <g stroke="#111" stroke-width="3" stroke-linejoin="round">
    <path d="M0 120 H240" fill="none"/>
    <g transform="translate(36 0)">
      <path d="M14 84 L-12 66 L16 74 Z" fill="#34A853"/>
      <rect x="18" y="94" width="11" height="26" rx="5.5" fill="#34A853"/>
      <rect x="38" y="94" width="11" height="26" rx="5.5" fill="#34A853"/>
      <rect x="6" y="62" width="50" height="38" rx="15" fill="#34A853"/>
      <rect x="34" y="36" width="44" height="32" rx="13" fill="#34A853"/>
      <circle cx="66" cy="49" r="4" fill="#111" stroke="none"/>
    </g>
    <rect x="148" y="76" width="22" height="44" rx="11" fill="#EA4335"/>
    <rect x="178" y="92" width="18" height="28" rx="9" fill="#EA4335"/>
    <g transform="translate(202 34)">
      <g fill="#111" stroke="none">
        <circle r="12.5"/><circle cx="12" r="7"/><circle cx="-12" r="7"/><circle cy="12" r="7"/><circle cy="-12" r="7"/>
        <circle cx="8.5" cy="8.5" r="7"/><circle cx="-8.5" cy="8.5" r="7"/><circle cx="8.5" cy="-8.5" r="7"/><circle cx="-8.5" cy="-8.5" r="7"/>
      </g>
      <g fill="#4285F4" stroke="none">
        <circle r="10"/><circle cx="12" r="4.5"/><circle cx="-12" r="4.5"/><circle cy="12" r="4.5"/><circle cy="-12" r="4.5"/>
        <circle cx="8.5" cy="8.5" r="4.5"/><circle cx="-8.5" cy="8.5" r="4.5"/><circle cx="8.5" cy="-8.5" r="4.5"/><circle cx="-8.5" cy="-8.5" r="4.5"/>
      </g>
    </g>
  </g>
</svg>
